<svg xmlns="http://www.w3.org/2000/svg" version="1.1" xmlns:xlink="http://www.w3.org/1999/xlink" width="512" height="512" x="0" y="0" viewBox="0 0 24 24" style="enable-background:new 0 0 512 512" xml:space="preserve" class=""><rect width="24" height="24" rx="4.8" ry="4.8" fill="#fdfeee" shape="rounded"></rect><g transform="matrix(0.7,0,0,0.7,3.6001288673258394,3.5999543309211735)"><path d="M21.983 10.539a8.846 8.846 0 0 0-1.001-3.613 3.265 3.265 0 0 0 1.632-.89c1.192-1.191 2.069-3.922.671-5.321-1.401-1.399-4.131-.521-5.321.671a3.265 3.265 0 0 0-.89 1.632 8.846 8.846 0 0 0-3.613-1.001C12.792 1.337 11.138 0 8.5 0H7a1 1 0 1 0 0 2h1.5a5.14 5.14 0 0 1 2.004.392 7.611 7.611 0 0 0-3.062 1.866C6.09 5.61 4.687 7.996 3.826 10.552 2.091 10.813-.001 12.089-.001 15a1 1 0 1 0 2 0c0-1.264.605-1.889 1.228-2.199-.366 1.905-.344 3.767.305 5.24-.611.813-1.115 1.902-1.471 2.803a.843.843 0 0 0 1.095 1.095c.901-.356 1.99-.861 2.803-1.471.857.377 1.846.543 2.899.543.756 0 1.544-.085 2.34-.238-.31.624-.935 1.229-2.199 1.229a1 1 0 1 0 0 2c2.911 0 4.187-2.092 4.448-3.827 2.557-.861 4.942-2.263 6.294-3.616a7.59 7.59 0 0 0 1.866-3.062c.225.539.391 1.207.391 2.004v1.5a1 1 0 1 0 2 0v-1.5c0-2.638-1.338-4.291-2.017-4.961ZM5.487 12a18.033 18.033 0 0 1 1.641-3.959l1.624 1.624L8.126 12H5.487Zm7.667-2.846 1.731 1.731-.634 2.365-2.365.634-1.731-1.731.634-2.365 2.365-.634Zm-1.153 9.358v-2.588l2.374-.636 1.584 1.584A18.08 18.08 0 0 1 12 18.512ZM15.828 9l-.827-.827V4.314c1.052.331 2.058.924 2.91 1.776S19.357 7.948 19.688 9h-3.86Zm3.551-6.2c.316-.316.904-.612 1.464-.737a2.43 2.43 0 0 1 .522-.062c.257 0 .433.056.507.129.116.117.187.489.066 1.029-.125.56-.421 1.147-.737 1.464a1.317 1.317 0 0 1-1.822 0c-.244-.244-.378-.567-.378-.911s.134-.667.378-.911ZM13 4.002v3.123l-3.124.837-1.617-1.617c.197-.246.397-.472.598-.673 1.118-1.118 2.607-1.67 4.143-1.67ZM5.927 18.074c-.855-.855-1.063-2.365-.85-4.074h4.097l.827.827v4.096c-1.709.213-3.22.005-4.074-.849Zm12.402-2.931a8.03 8.03 0 0 1-.673.597l-1.578-1.578.848-3.163h3.073c0 1.536-.551 3.025-1.67 4.144Z" fill="#f3f65c" opacity="1" data-original="#000000" class=""></path></g></svg>