<svg xmlns="http://www.w3.org/2000/svg" version="1.1" xmlns:xlink="http://www.w3.org/1999/xlink" width="512" height="512" x="0" y="0" viewBox="0 0 24 24" style="enable-background:new 0 0 512 512" xml:space="preserve" class=""><rect width="24" height="24" rx="4.8" ry="4.8" fill="#fbc3ff" shape="rounded"></rect><g transform="matrix(0.7,0,0,0.7,3.6000000000000014,3.6001502037048354)"><path d="M23 11h-2.152a.505.505 0 0 1-.429-.242l-1.406-2.336a5.023 5.023 0 0 0-4.283-2.421h-3.802c-.954 0-1.811.53-2.236 1.382l-1.585 3.171a1 1 0 0 0 1.789.895l1.585-3.171a.497.497 0 0 1 .447-.276h1.602l-1.753 4.273a2.994 2.994 0 0 0 1.167 3.67l3.827 2.456a.495.495 0 0 1 .229.42v4.18a1 1 0 1 0 2 0v-4.18a2.49 2.49 0 0 0-1.15-2.104l-1.332-.855 2.268-5.6.92 1.529a2.512 2.512 0 0 0 2.142 1.21H23a1 1 0 1 0 0-2Zm-9.982 3.257a1 1 0 0 1-.391-1.225L14.691 8h.039c.57 0 1.113.177 1.585.472l-2.514 6.287-.782-.502ZM14.5 2.5a2.5 2.5 0 1 1 5 0 2.5 2.5 0 0 1-5 0ZM2 3a1 1 0 0 1 1-1h7a1 1 0 0 1 0 2H3a1 1 0 0 1-1-1Zm2 9H1a1 1 0 0 1 0-2h3a1 1 0 0 1 0 2ZM1 7a1 1 0 0 1 1-1h4a1 1 0 0 1 0 2H2a1 1 0 0 1-1-1Zm10.395 11.447C11.106 19.024 10.278 20 9 20H5a1 1 0 0 1 0-2h4c.354 0 .609-.455.612-.459.259-.481.86-.671 1.345-.421a.994.994 0 0 1 .438 1.328Z" fill="#ed1cff" opacity="1" data-original="#000000" class=""></path></g></svg>