<svg xmlns="http://www.w3.org/2000/svg" version="1.1" xmlns:xlink="http://www.w3.org/1999/xlink" width="512" height="512" x="0" y="0" viewBox="0 0 24 24" style="enable-background:new 0 0 512 512" xml:space="preserve" class=""><rect width="24" height="24" rx="4.8" ry="4.8" fill="#f3eefe" shape="rounded"></rect><g transform="matrix(0.7,0,0,0.7,3.600000000000003,3.600000000000003)"><path d="M24 12a1 1 0 0 1-1 1H13v10a1 1 0 1 1-2 0V13H1a1 1 0 1 1 0-2h10V1a1 1 0 1 1 2 0v10h10a1 1 0 0 1 1 1Zm-1 4h-6a1 1 0 1 0 0 2h6a1 1 0 1 0 0-2Zm0 4h-6a1 1 0 1 0 0 2h6a1 1 0 1 0 0-2ZM1 6h6a1 1 0 1 0 0-2H1a1 1 0 1 0 0 2Zm16 0h2v2a1 1 0 1 0 2 0V6h2a1 1 0 1 0 0-2h-2V2a1 1 0 1 0-2 0v2h-2a1 1 0 1 0 0 2ZM7.707 16.293a.999.999 0 0 0-1.414 0L4.5 18.086l-1.793-1.793a.999.999 0 1 0-1.414 1.414L3.086 19.5l-1.793 1.793a.999.999 0 1 0 1.414 1.414L4.5 20.914l1.793 1.793a.997.997 0 0 0 1.414 0 .999.999 0 0 0 0-1.414L5.914 19.5l1.793-1.793a.999.999 0 0 0 0-1.414Z" fill="#8b5cf6" opacity="1" data-original="#000000" class=""></path></g></svg>