<svg xmlns="http://www.w3.org/2000/svg" version="1.1" xmlns:xlink="http://www.w3.org/1999/xlink" width="512" height="512" x="0" y="0" viewBox="0 0 24 24" style="enable-background:new 0 0 512 512" xml:space="preserve" class=""><rect width="24" height="24" rx="4.8" ry="4.8" fill="#e2e8ff" shape="rounded"></rect><g transform="matrix(0.7,0,0,0.7,3.6000000000000014,3.6000000000000014)"><path d="M23 0h-1c-2.757 0-5 2.243-5 5v9.261A5.477 5.477 0 0 0 13.5 13C10.468 13 8 15.467 8 18.5s2.468 5.5 5.5 5.5 5.5-2.467 5.5-5.5V5c0-1.654 1.346-3 3-3h1a1 1 0 1 0 0-2Zm-9.5 22c-1.93 0-3.5-1.57-3.5-3.5s1.57-3.5 3.5-3.5 3.5 1.57 3.5 3.5-1.57 3.5-3.5 3.5ZM0 1a1 1 0 0 1 1-1h11a1 1 0 1 1 0 2H1a1 1 0 0 1-1-1Zm0 6a1 1 0 0 1 1-1h11a1 1 0 1 1 0 2H1a1 1 0 0 1-1-1Zm8 6a1 1 0 0 1-1 1H1a1 1 0 1 1 0-2h6a1 1 0 0 1 1 1Z" fill="#5f80ff" opacity="1" data-original="#000000" class=""></path></g></svg>