<svg xmlns="http://www.w3.org/2000/svg" version="1.1" xmlns:xlink="http://www.w3.org/1999/xlink" width="512" height="512" x="0" y="0" viewBox="0 0 24 24" style="enable-background:new 0 0 512 512" xml:space="preserve" class=""><rect width="24" height="24" rx="4.8" ry="4.8" fill="#fff7c3" shape="rounded"></rect><g transform="matrix(0.7,0,0,0.7,3.625017303228379,3.5999629254016323)"><path d="M17.115 8.05a1.5 1.5 0 1 0 1.835 1.065 1.5 1.5 0 0 0-1.835-1.065ZM12.115 5.05a1.5 1.5 0 1 0 1.835 1.065 1.5 1.5 0 0 0-1.835-1.065ZM7.115 8.05A1.5 1.5 0 1 0 8.95 9.115 1.5 1.5 0 0 0 7.115 8.05ZM7.115 14.05a1.5 1.5 0 1 0 1.835 1.065 1.5 1.5 0 0 0-1.835-1.065Z" fill="#ffac1c" opacity="1" data-original="#000000" class=""></path><path d="M12.5.007A12 12 0 0 0 .083 12a12.014 12.014 0 0 0 12 12c.338 0 .67-.022 1-.05a1 1 0 0 0 .916-1l-.032-3.588a3.567 3.567 0 0 1 6.09-2.562l.1.1a1.912 1.912 0 0 0 1.769.521 1.888 1.888 0 0 0 1.377-1.177 11.924 11.924 0 0 0 .777-4.544A12.155 12.155 0 0 0 12.5.007Zm8.982 15.4-.014-.014a5.567 5.567 0 0 0-9.5 3.985L11.992 22a10 10 0 0 1 .09-20c.117 0 .235 0 .353.006a10.127 10.127 0 0 1 9.645 9.743 9.892 9.892 0 0 1-.595 3.651Z" fill="#ffac1c" opacity="1" data-original="#000000" class=""></path></g></svg>