<svg xmlns="http://www.w3.org/2000/svg" version="1.1" xmlns:xlink="http://www.w3.org/1999/xlink" width="512" height="512" x="0" y="0" viewBox="0 0 24 24" style="enable-background:new 0 0 512 512" xml:space="preserve" class=""><rect width="24" height="24" rx="4.8" ry="4.8" fill="#feeef9" shape="rounded"></rect><g transform="matrix(0.7,0,0,0.7,3.6000000000000014,3.6000000000000014)"><path d="M8 8a1 1 0 0 1 1-1h2V5a1 1 0 0 1 2 0v2h2a1 1 0 0 1 0 2h-2v4a1 1 0 0 1-2 0V9H9a1 1 0 0 1-1-1Zm14-3v14c0 2.757-2.243 5-5 5H6c-2.206 0-4-1.794-4-4V5c0-2.757 2.243-5 5-5h10c2.757 0 5 2.243 5 5ZM4 5v11.556A3.949 3.949 0 0 1 6 16h14V5c0-1.654-1.346-3-3-3H7C5.346 2 4 3.346 4 5Zm16 14v-1H6c-1.103 0-2 .897-2 2s.897 2 2 2h11c1.654 0 3-1.346 3-3Z" fill="#f65ccc" opacity="1" data-original="#000000" class=""></path></g></svg>